# xmcd CD database file
# Copyright (C) 1996 Ti Kan
#
# Track frame offsets:
# 	182
# 	17662
# 	29410
# 	38955
# 	49285
# 	67702
# 	81100
# 	93995
# 	110472
# 	124777
# 	135715
# 	148117
# 	164172
# 	176832
# 	186732
# 	199767
# 	208990
# 	223980
# 	235937
# 	249847
# 	260015
# 	273115
# 	286110
# 	308867
#
# Disc length: 4319 seconds
#
# Revision: 1
# Processed by: cddbd v1.4b41PL1 Copyright (c) Steve Scherf et al.
# Submitted via: DiscPlay 3.4.1
#
DISCID=7310dd18
DTITLE=Simone - O melhor de Simone
DYEAR=1900
DGENRE=
TTITLE0=De degrau em Degrau
TTITLE1=Pingos de Chuva
TTITLE2=Sensatez
TTITLE3=Fúria de Viver
TTITLE4=As três lágrimas
TTITLE5=Se tens coração
TTITLE6=Yesterday
TTITLE7=Tu sei Quello
TTITLE8=Que c'est triste venise
TTITLE9=Não te peço palavras
TTITLE10=Saudade
TTITLE11=Esta Lisboa que eu amo
TTITLE12=Desfolhada Portuguesa
TTITLE13=Dia de rosas
TTITLE14=Praia de Outono
TTITLE15=A banda
TTITLE16=Não fiques sem alma
TTITLE17=Já ouvistes o mar
TTITLE18=Começar de Novo
TTITLE19=As coisas de que eu gosto
TTITLE20=Apenas o meu povo
TTITLE21=Música no coração
TTITLE22=Glória, glória aleluia
TTITLE23=A noite do adeus
EXTD=
EXTT0=
EXTT1=
EXTT2=
EXTT3=
EXTT4=
EXTT5=
EXTT6=
EXTT7=
EXTT8=
EXTT9=
EXTT10=
EXTT11=
EXTT12=
EXTT13=
EXTT14=
EXTT15=
EXTT16=
EXTT17=
EXTT18=
EXTT19=
EXTT20=
EXTT21=
EXTT22=
EXTT23=
PLAYORDER=
